<svg xmlns="http://www.w3.org/2000/svg" version="1.1" xmlns:xlink="http://www.w3.org/1999/xlink" xmlns:svgjs="http://svgjs.dev/svgjs" viewBox="0 0 640 800"><defs><filter id="uuunion-blur" x="-100%" y="-100%" width="400%" height="400%" color-interpolation-filters="sRGB">
        <feGaussianBlur in="SourceGraphic" stdDeviation="15 19" result="blur"></feGaussianBlur>
        <feDropShadow stdDeviation="54.15384615384616" in="blur" dx="44" dy="44" flood-color="hsl(205, 69%, 40%)" flood-opacity="0.11" x="0%" y="0%" width="100%" height="100%"></feDropShadow>
      </filter><filter id="uuunion-blur2" x="-100%" y="-100%" width="400%" height="400%" color-interpolation-filters="sRGB">
        <feGaussianBlur in="SourceGraphic" stdDeviation="15 19" result="blur"></feGaussianBlur>
        <feDropShadow stdDeviation="54.15384615384616" in="blur" dx="-44" dy="-44" flood-color="hsl(205, 69%, 40%)" flood-opacity="0.11" x="0%" y="0%" width="100%" height="100%"></feDropShadow>
      </filter><linearGradient gradientTransform="rotate(313, 0.5, 0.5)" x1="50%" y1="0%" x2="50%" y2="100%" id="uuunion-grad"><stop stop-color="hsl(205, 69%, 80%)" offset="10%"></stop><stop stop-color="hsl(205, 69%, 40%)" offset="90%"></stop></linearGradient><linearGradient gradientTransform="rotate(304, 0.5, 0.5)" x1="50%" y1="0%" x2="50%" y2="100%" id="uuunion-grad2"><stop stop-color="hsl(205, 69%, 80%)" offset="25%"></stop><stop stop-color="hsl(205, 69%, 40%)" offset="100%"></stop></linearGradient><linearGradient gradientTransform="rotate(152, 0.5, 0.5)" x1="50%" y1="0%" x2="50%" y2="100%" id="uuunion-grad3"><stop stop-color="hsl(205, 69%, 80%)" offset="0%"></stop><stop stop-color="hsl(205, 69%, 40%)" offset="75%"></stop></linearGradient></defs><path d="M-65.19 -77.21Q-53.37 -75.08 -41.54 -73.24 -29.72 -71.78 -17.89 -70.79 -6.06 -70.33 5.75 -70.42 17.58 -71.06 29.4 -72.21 41.23 -73.81 53.06 -75.77 64.88 -77.97 76.71 -80.28 88.53 -82.57 100.36 -84.72 112.19 -86.6 124.01 -88.1 135.84 -89.13 147.66 -89.64 159.49 -89.6 171.32 -89.01 183.14 -87.9 194.97 -86.34 206.79 -84.41 218.62 -82.23 230.45 -79.92 242.27 -77.62 254.1 -75.45 265.92 -73.54 277.75 -72.01 289.58 -70.93 301.4 -70.37 313.23 -70.36 325.06 -70.91 336.88 -71.97 348.71 -73.5 360.53 -75.4 372.36 -77.56 384.19 -79.86 396.01 -82.17 407.84 -84.35 419.66 -86.29 431.49 -87.86 443.32 -88.99 455.14 -89.59 466.97 -89.65 478.79 -89.16 490.62 -88.13 502.45 -86.65 514.27 -84.78 526.1 -82.63 537.92 -80.34 549.75 -78.03 561.58 -75.82 573.4 -73.86 585.23 -72.25 597.05 -71.08 608.88 -70.43 620.71 -70.32 632.53 -70.77 644.36 -71.74 656.18 -73.19 668.01 -75.03 679.84 -77.15 691.66 -79.44 692.83 -64.44 694.67 -49.43 697.07 -34.43 699.89 -19.43 702.95 -4.42 706.08 10.57 709.08 25.57 711.78 40.57 714 55.58 715.63 70.58 716.55 85.58 716.73 100.59 716.13 115.59 714.8 130.59 712.83 145.6 710.32 160.6 707.43 175.6 704.34 190.61 701.22 205.61 698.27 220.61 695.67 235.62 693.57 250.62 692.09 265.62 691.33 280.63 691.33 295.63 692.1 310.63 693.58 325.64 695.68 340.64 698.29 355.64 701.24 370.65 704.36 385.65 707.45 400.65 710.34 415.66 712.84 430.66 714.81 445.66 716.14 460.66 716.73 475.67 716.55 490.67 715.62 505.67 713.99 520.68 711.76 535.68 709.06 550.68 706.06 565.69 702.93 580.69 699.87 595.69 697.05 610.7 694.66 625.7 692.82 640.7 691.66 655.71 691.24 670.71 691.58 685.71 692.68 700.72 694.45 715.72 696.8 730.72 699.58 745.73 702.63 760.73 705.76 775.73 708.78 790.74 711.52 805.74 713.8 820.74 715.49 835.75 716.49 850.75 716.74 865.75 716.23 880.75 704.05 883.89 691.88 886.8 679.71 889.32 667.54 891.31 655.36 892.65 643.19 893.26 631.02 893.11 618.85 892.21 606.67 890.61 594.5 888.4 582.33 885.71 570.16 882.69 557.98 879.52 545.81 876.38 533.64 873.44 521.47 870.88 509.29 868.84 497.12 867.44 484.95 866.76 472.77 866.83 460.6 867.67 448.43 869.21 436.26 871.37 424.08 874.02 411.91 877.01 399.74 880.18 387.57 883.34 375.39 886.3 363.22 888.9 351.05 891 338.88 892.46 326.7 893.2 314.53 893.19 302.36 892.43 290.19 890.95 278.01 888.84 265.84 886.23 253.67 883.25 241.5 880.1 229.32 876.93 217.15 873.94 204.98 871.3 192.81 869.16 180.63 867.64 168.46 866.82 156.29 866.76 144.12 867.46 131.94 868.88 119.77 870.94 107.6 873.51 95.43 876.46 83.25 879.61 71.08 882.78 58.91 885.79 46.74 888.47 34.56 890.66 22.39 892.25 10.22 893.13 -1.94 893.25 -14.12 892.62 -26.29 891.26 -38.46 889.26 -50.63 886.73 -62.81 883.81 -62.76 868.79 -62.78 853.78 -62.88 838.76 -63.04 823.74 -63.26 808.73 -63.53 793.71 -63.82 778.7 -64.13 763.68 -64.42 748.66 -64.69 733.65 -64.92 718.63 -65.09 703.61 -65.2 688.6 -65.23 673.58 -65.19 658.57 -65.08 643.55 -64.9 628.53 -64.67 613.52 -64.4 598.5 -64.1 583.49 -63.79 568.47 -63.5 553.45 -63.24 538.44 -63.02 523.42 -62.87 508.41 -62.77 493.39 -62.76 478.37 -62.82 463.36 -62.94 448.34 -63.14 433.32 -63.38 418.31 -63.66 403.29 -63.96 388.28 -64.26 373.26 -64.55 358.24 -64.8 343.23 -65.01 328.21 -65.15 313.2 -65.23 298.18 -65.23 283.16 -65.15 268.15 -65.01 253.13 -64.8 238.11 -64.55 223.1 -64.26 208.08 -63.96 193.07 -63.66 178.05 -63.38 163.03 -63.14 148.02 -62.94 133 -62.82 117.99 -62.76 102.97 -62.77 87.95 -62.86 72.94 -63.02 57.92 -63.24 42.91 -63.5 27.89 -63.79 12.87 -64.1 -2.13 -64.39 -17.15 -64.67 -32.17 -64.9 -47.18 -65.08 -62.2 -65.19 -77.21" fill="url(#uuunion-grad)"></path><path d="M-65.19 -77.21Q-65.08 -62.2 -64.9 -47.18 -64.67 -32.17 -64.39 -17.15 -64.1 -2.13 -63.79 12.87 -63.5 27.89 -63.24 42.91 -63.02 57.92 -62.86 72.94 -62.77 87.95 -62.76 102.97 -62.82 117.99 -62.94 133 -63.14 148.02 -63.38 163.03 -63.66 178.05 -63.96 193.07 -64.26 208.08 -64.55 223.1 -64.8 238.11 -65.01 253.13 -65.15 268.15 -65.23 283.16 -65.23 298.18 -65.15 313.2 -65.01 328.21 -64.8 343.23 -64.55 358.24 -64.26 373.26 -63.96 388.28 -63.66 403.29 -47.59 406.59 -31.53 409.22 -2.17 411.34 2.59 411.49 12.36 404.89 22.1 397.86 31.8 390.43 41.48 382.63 51.13 374.54 60.75 366.23 70.36 357.77 79.96 349.27 89.55 340.81 99.13 332.47 108.72 324.33 118.32 316.48 127.94 308.97 137.58 301.86 147.25 295.17 156.96 288.91 166.71 283.1 176.5 277.7 186.35 272.69 196.25 268.02 206.21 263.61 216.23 259.39 226.32 255.29 236.48 251.22 246.7 247.09 257 242.82 267.35 238.33 277.77 233.56 288.26 228.43 298.8 222.92 309.39 217 320.03 210.64 330.71 203.87 341.42 196.7 352.16 189.17 362.91 181.33 373.68 173.25 384.44 164.99 395.19 156.65 405.92 148.3 416.62 140.03 427.28 131.91 437.89 124.02 448.44 116.43 458.92 109.18 469.32 102.31 479.64 95.85 489.88 89.8 500.01 84.15 510.04 78.88 519.97 73.94 529.8 69.29 539.51 64.86 549.11 60.57 558.6 56.35 567.99 52.11 577.28 47.78 586.47 43.29 595.57 38.56 604.58 33.53 613.52 28.15 622.4 22.41 631.22 16.26 640 9.72 636.66 -7.83 633.59 -25.39 631.05 -42.96 629.24 -60.52 628.3 -78.09 628.33 -95.65 629.31 -113.21 631.16 -130.78 618.89 -130.52 606.62 -130.84 594.36 -131.73 582.09 -133.12 569.82 -134.93 557.56 -137.05 545.29 -139.36 533.02 -141.7 520.76 -143.93 508.49 -145.93 496.22 -147.56 483.95 -148.73 471.69 -149.36 459.42 -149.42 447.15 -148.91 434.89 -147.84 422.62 -146.3 410.35 -144.37 398.09 -142.17 385.82 -139.84 373.55 -137.52 361.29 -135.35 349.02 -133.46 336.75 -131.98 324.49 -130.98 312.22 -130.54 299.95 -130.68 287.68 -131.39 275.42 -132.62 263.15 -134.31 250.88 -136.34 238.62 -138.6 226.35 -140.95 214.08 -143.23 201.82 -145.32 189.55 -147.08 177.28 -148.41 165.02 -149.22 152.75 -149.47 140.48 -149.14 128.22 -148.24 115.95 -146.84 103.68 -145.03 91.41 -142.9 79.15 -140.6 66.88 -138.26 54.61 -136.02 42.35 -134.03 30.08 -132.41 17.81 -131.25 5.55 -130.62 -6.71 -130.57 -18.98 -131.1 -31.24 -132.17 -43.51 -133.72 -55.78 -135.66 -68.04 -137.86 -80.31 -140.19 -92.58 -142.51 -104.85 -144.68 -117.11 -146.56 -129.38 -148.03 -142.22 -145.31 -131.7 -133.31 -120.62 -124.58 -109.54 -115.48 -98.47 -106.1 -87.4 -96.52 -76.31 -86.86 -65.19 -77.21" fill="url(#uuunion-grad2)" filter="url(#uuunion-blur)"></path><path d="M643.19 411.18Q659.26 409.78 675.32 407.38 691.39 404.23 707.45 400.65 710.34 415.66 712.84 430.66 714.81 445.66 716.14 460.66 716.73 475.67 716.55 490.67 715.62 505.67 713.99 520.68 711.76 535.68 709.06 550.68 706.06 565.69 702.93 580.69 699.87 595.69 697.05 610.7 694.66 625.7 692.82 640.7 691.66 655.71 691.24 670.71 691.58 685.71 692.68 700.72 694.45 715.72 696.8 730.72 699.58 745.73 702.63 760.73 705.76 775.73 708.78 790.74 711.52 805.74 713.8 820.74 715.49 835.75 716.49 850.75 716.74 865.75 716.23 880.75 705.05 883.64 693.88 886.35 682.7 888.75 671.53 890.72 660.36 892.18 649.18 893.05 638.01 893.29 626.83 892.89 615.66 891.86 604.49 890.26 593.31 888.16 582.14 885.67 570.96 882.9 559.79 880 548.62 877.09 537.44 874.32 526.27 871.83 515.09 869.73 503.92 868.13 492.75 867.11 481.57 866.7 470.4 866.94 459.22 867.81 448.05 869.27 436.88 871.24 425.7 873.64 414.53 876.35 403.35 879.23 392.18 882.15 381.01 884.97 369.83 887.54 358.66 889.76 347.48 891.49 336.31 892.68 325.14 893.25 313.96 893.17 302.79 892.47 291.61 891.16 280.44 889.31 269.27 887 258.09 884.37 246.92 881.51 235.74 878.59 224.57 875.73 213.4 873.08 202.22 870.77 191.05 868.9 179.87 867.56 168.7 866.83 157.53 866.73 146.35 867.28 135.18 868.44 124 870.16 112.83 872.35 101.66 874.91 90.48 877.72 79.31 880.64 68.13 883.53 56.96 886.25 45.79 888.66 34.61 890.66 23.44 892.14 6.71 888.14 1.18 873.22 1.14 863.18 1.03 853.14 0.88 843.1 0.67 833.07 0.53 818.01 1.14 813 13.52 806.32 25.86 798.86 38.15 790.71 50.4 781.97 62.61 772.81 74.77 763.4 86.9 753.96 99 744.66 111.08 735.71 123.13 727.27 135.16 719.47 147.19 712.4 159.22 706.12 171.26 700.63 183.31 695.87 195.38 691.74 207.49 688.12 219.63 684.84 231.82 681.72 244.06 678.55 256.36 675.15 268.73 671.34 281.17 666.98 293.68 661.94 306.27 656.15 318.94 649.6 331.7 642.29 344.54 634.3 357.47 625.74 370.47 616.76 383.56 607.52 396.72 598.21 409.95 589.03 423.24 580.15 436.59 571.73 449.98 563.92 463.42 556.8 476.88 550.42 490.36 544.79 503.85 539.87 517.33 535.58 530.79 531.78 544.23 528.33 557.62 525.05 570.96 521.75 584.24 518.26 597.43 514.39 610.54 510.02 623.56 505.01 636.46 499.3 649.25 492.85 661.92 485.69 674.46 477.86 686.87 469.48 699.14 460.67 711.28 451.59 723.28 442.43 735.15 433.36 746.88 424.56 758.49 416.19 769.99 408.37 781.37 401.2 783.47 390.34 763.68 389.95 753.64 391.26 743.6 392.92 733.56 394.86 723.51 397.01 713.47 399.27 703.43 401.57 693.39 403.8 683.35 405.88 673.31 407.73 663.27 409.26 653.23 410.43 643.19 411.18" fill="url(#uuunion-grad3)" filter="url(#uuunion-blur2)"></path></svg>