<?xml version="1.0" encoding="UTF-8"?>
<!DOCTYPE svg PUBLIC "-//W3C//DTD SVG 1.1//EN" "http://www.w3.org/Graphics/SVG/1.1/DTD/svg11.dtd">
<!-- Creator: CorelDRAW 2021 (64-Bit) -->
<svg xmlns="http://www.w3.org/2000/svg" xml:space="preserve" width="70.167mm" height="25.5896mm" version="1.1" style="shape-rendering:geometricPrecision; text-rendering:geometricPrecision; image-rendering:optimizeQuality; fill-rule:evenodd; clip-rule:evenodd"
viewBox="0 0 1705.62 622.03"
 xmlns:xlink="http://www.w3.org/1999/xlink"
 xmlns:xodm="http://www.corel.com/coreldraw/odm/2003">
 <defs>
  <style type="text/css">
   <![CDATA[
    .fil0 {fill:#449CEE}
    .fil1 {fill:#449CEE;fill-rule:nonzero}
   ]]>
  </style>
 </defs>
 <g id="Layer_x0020_1">
  <metadata id="CorelCorpID_0Corel-Layer"/>
  <path class="fil0" d="M885.12 620.87c-47.45,0.74 -91.29,-6.15 -131.54,-20.67 -40.25,-14.53 -75.17,-35.42 -104.75,-62.69 -29.59,-27.27 -52.82,-59.78 -69.7,-97.54 -16.88,-37.76 -25.68,-79.22 -26.38,-124.37 -0.7,-45.16 6.8,-86.87 22.49,-125.14 15.7,-38.26 38.05,-71.49 67.06,-99.67 29,-28.18 63.54,-50.16 103.6,-65.94 40.06,-15.78 84.1,-24.04 132.12,-24.79 53.16,-0.83 101.32,7.28 144.46,24.33 43.15,17.05 79.56,42.21 109.24,75.49l-89.58 85.44c-22.08,-22.53 -45.92,-39.17 -71.53,-49.91 -25.61,-10.75 -53.56,-15.89 -83.86,-15.42 -28.58,0.44 -54.66,5.43 -78.24,14.94 -23.58,9.52 -43.81,22.84 -60.7,39.97 -16.88,17.13 -29.86,37.34 -38.93,60.64 -9.07,23.3 -13.38,49.24 -12.94,77.82 0.43,27.44 5.54,52.8 15.34,76.09 9.8,23.29 23.4,43.38 40.82,60.26 17.42,16.88 37.77,29.71 61.06,38.5 23.29,8.78 49.23,12.95 77.81,12.51 27.44,-0.43 53.95,-5.27 79.53,-14.53l23.45 -10.3c4.33,-1.9 3.81,-1.66 3.75,-5.95l-1.9 -121.75c-0.15,-9.69 0.92,-12.19 2.74,-13.65 1.55,-1.24 3.07,-2.11 11.06,-2.23l99.46 -1.55c9.13,-0.14 11.23,0.22 12.69,1.94 1.12,1.32 2.5,2.83 2.6,9.35l3.01 193.16c0.05,3.11 -0.33,3.8 -0.71,4.73 -0.41,0.98 -0.9,2.18 -3.52,4.17 -31.75,24.03 -68.17,42.53 -109.25,55.47 -42.96,13.53 -85.87,20.64 -128.74,21.3z"/>
  <path class="fil0" d="M453.52 162.49l87.3 -90.07c-22.52,-19.67 -48.34,-35.4 -77.47,-47.19 -42.87,-17.34 -90.31,-25.61 -142.33,-24.8 -46.87,0.73 -90.06,8.98 -129.55,24.75 -39.49,15.77 -73.6,37.74 -102.32,65.92 -28.72,28.18 -50.93,61.4 -66.63,99.67 -15.7,38.27 -23.2,79.98 -22.49,125.14 0.7,45.16 9.5,86.61 26.38,124.37 16.88,37.76 40.12,70.27 69.7,97.54 29.59,27.27 64.36,48.17 104.32,62.7 39.96,14.53 83.1,21.43 129.4,20.71 52.59,-0.82 100.03,-10.71 142.34,-29.66 42.3,-18.95 77.19,-46.09 104.65,-81.39l-92.2 -82.61c-19.64,23.75 -41.94,41.82 -66.91,54.22 -24.96,12.39 -52.31,18.82 -82.03,19.29 -28.01,0.44 -53.52,-3.74 -76.52,-12.53 -23.01,-8.79 -43.07,-21.48 -60.2,-38.08 -17.12,-16.6 -30.59,-36.54 -40.38,-59.83 -9.8,-23.29 -14.92,-48.94 -15.35,-76.95 -0.44,-28.01 3.88,-53.81 12.94,-77.39 9.07,-23.58 21.9,-43.94 38.5,-61.06 16.6,-17.12 36.26,-30.44 58.98,-39.94 22.72,-9.5 48.09,-14.47 76.1,-14.91 29.72,-0.46 57.26,5.11 82.59,16.72 14.54,6.66 28.27,15.13 41.17,25.4z"/>
  <polygon class="fil0" points="483.81,428.49 575.9,510.86 698.71,379.13 601.26,305.23 "/>
  <path class="fil1" d="M1127.01 94.72l247.2 288.21 0 0 1.63 2.42 30.74 51.4 -61.09 0.01 32.08 -54.09 209.02 -356.06c2.47,-2.96 5.95,-4.58 9.5,-4.84l88.15 0.2c15.03,-0.12 18.68,3.27 19.52,17.34l1.84 582.72 -130.34 0 -0.86 -400.47 24.01 0 -191.75 325.65c-0.4,1.09 -2.42,2.54 -4.58,2.64l-57.14 0c-1.55,-0.37 -1.09,-1.66 -2.18,-2.85l-304.52 -365.58 88.75 -86.71z"/>
 </g>
</svg>
