<?xml version="1.0" encoding="UTF-8"?>
<!DOCTYPE svg PUBLIC "-//W3C//DTD SVG 1.1//EN" "http://www.w3.org/Graphics/SVG/1.1/DTD/svg11.dtd">
<!-- Creator: CorelDRAW 2021 (64-Bit) -->
<svg xmlns="http://www.w3.org/2000/svg" xml:space="preserve" width="297mm" height="210mm" version="1.1" style="shape-rendering:geometricPrecision; text-rendering:geometricPrecision; image-rendering:optimizeQuality; fill-rule:evenodd; clip-rule:evenodd"
viewBox="0 0 29700 21000"
 xmlns:xlink="http://www.w3.org/1999/xlink"
 xmlns:xodm="http://www.corel.com/coreldraw/odm/2003">
 <defs>
  <style type="text/css">
   <![CDATA[
    .str0 {stroke:black;stroke-width:20;stroke-linecap:round;stroke-linejoin:round;stroke-miterlimit:22.9256}
    .fil0 {fill:none}
    .fil2 {fill:#449CEE}
    .fil3 {fill:white}
    .fil4 {fill:#449CEE;fill-rule:nonzero}
    .fil1 {fill:white;fill-rule:nonzero}
    .fil5 {fill:url(#id0);fill-rule:nonzero}
   ]]>
  </style>
  <linearGradient id="id0" gradientUnits="userSpaceOnUse" x1="1839.26" y1="12297.23" x2="8855.96" y2="12297.23">
   <stop offset="0" style="stop-opacity:1; stop-color:#449CEE"/>
   <stop offset="0.768627" style="stop-opacity:1; stop-color:#2380D6"/>
   <stop offset="1" style="stop-opacity:1; stop-color:#0263BD"/>
  </linearGradient>
 </defs>
 <g id="Layer_x0020_1">
  <metadata id="CorelCorpID_0Corel-Layer"/>
  <rect class="fil0 str0" x="15307.95" y="4998.98" width="10854.51" height="10854.51" rx="952.94" ry="952.94"/>
  <path class="fil1" d="M11675.84 4114.5c-190.5,0 -367.48,-31.16 -530.93,-93.48 -163.45,-62.33 -305.15,-150.52 -425.1,-264.59 -119.94,-114.06 -213.43,-249.29 -280.45,-405.69 -67.03,-156.4 -100.55,-327.5 -100.55,-513.29 0,-185.8 33.52,-356.9 100.55,-513.3 67.02,-156.39 160.51,-291.62 280.45,-405.69 119.95,-114.06 261.65,-202.26 425.1,-264.58 163.45,-62.33 341.61,-93.49 534.46,-93.49 214.02,0 408.63,37.04 583.85,111.13 175.21,74.08 320.44,182.85 435.68,326.32l-373.95 345.72c-82.31,-94.08 -175.21,-165.81 -278.69,-215.2 -103.48,-49.39 -216.37,-74.08 -338.67,-74.08 -115.24,0 -219.9,18.81 -313.97,56.44 -94.07,37.63 -175.8,91.14 -245.18,160.52 -69.38,69.38 -123.47,152.28 -162.28,248.71 -38.8,96.42 -58.21,202.26 -58.21,317.5 0,115.24 19.41,221.07 58.21,317.5 38.81,96.42 92.9,179.33 162.28,248.71 69.38,69.38 151.11,122.88 245.18,160.51 94.07,37.63 198.73,56.44 313.97,56.44 122.3,0 235.19,-24.69 338.67,-74.08 103.48,-49.39 196.38,-122.3 278.69,-218.72l373.95 345.72c-115.24,143.46 -260.47,252.83 -435.68,328.08 -175.22,75.26 -371.01,112.89 -587.38,112.89z"/>
  <path id="_1" class="fil1" d="M14007.71 4114.5c-195.21,0 -375.13,-31.16 -539.75,-93.48 -164.63,-62.33 -306.92,-150.52 -426.87,-264.59 -119.94,-114.06 -213.43,-249.29 -280.45,-405.69 -67.03,-156.4 -100.55,-327.5 -100.55,-513.29 0,-185.8 33.52,-356.9 100.55,-513.3 67.02,-156.39 161.1,-291.62 282.22,-405.69 121.12,-114.06 264.58,-202.26 430.39,-264.58 165.8,-62.33 347.48,-93.49 545.04,-93.49 218.72,0 416.28,36.45 592.67,109.36 176.38,72.91 324.55,178.74 444.5,317.5l-373.95 345.72c-89.37,-94.07 -186.38,-164.04 -291.04,-209.9 -104.66,-45.86 -219.31,-68.79 -343.96,-68.79 -117.59,0 -225.19,18.81 -322.79,56.44 -97.6,37.63 -181.68,91.14 -252.24,160.52 -70.55,69.38 -125.23,151.69 -164.04,246.94 -38.8,95.25 -58.21,201.67 -58.21,319.27 0,112.89 19.41,217.54 58.21,313.97 38.81,96.43 93.49,179.92 164.04,250.47 70.56,70.56 153.46,124.65 248.71,162.28 95.25,37.63 201.67,56.44 319.27,56.44 112.88,0 222.25,-18.22 328.08,-54.68 105.83,-36.45 209.31,-98.19 310.44,-185.2l331.61 419.8c-136.4,103.48 -293.39,181.68 -470.95,234.6 -177.57,52.92 -354.55,79.37 -530.93,79.37zm472.72 -388.05l0 -931.34 529.16 0 0 1005.42 -529.16 -74.08z"/>
  <polygon id="_2" class="fil1" points="15320.04,4072.17 15320.04,1602.72 15799.82,1602.72 16847.57,3341.92 16593.57,3341.92 17623.68,1602.72 18103.46,1602.72 18110.51,4072.17 17563.71,4072.17 17560.18,2442.34 17662.48,2442.34 16844.04,3811.11 16582.98,3811.11 15743.37,2442.34 15863.32,2442.34 15863.32,4072.17 "/>
  <g id="_2414807442416">
   <path class="fil2" d="M5130.12 6218.55c-195.21,0 -375.13,-31.16 -539.75,-93.48 -164.63,-62.33 -306.92,-150.52 -426.87,-264.59 -119.94,-114.06 -213.43,-249.29 -280.45,-405.69 -67.03,-156.4 -100.55,-327.5 -100.55,-513.29 0,-185.8 33.52,-356.9 100.55,-513.3 67.02,-156.39 161.1,-291.62 282.22,-405.69 121.12,-114.06 264.58,-202.26 430.39,-264.58 165.8,-62.33 347.48,-93.49 545.04,-93.49 218.72,0 416.28,36.45 592.67,109.36 176.38,72.91 324.55,178.74 444.5,317.5l-373.95 345.72c-89.37,-94.07 -186.38,-164.04 -291.04,-209.9 -104.66,-45.86 -219.31,-68.79 -343.96,-68.79 -117.59,0 -225.19,18.81 -322.79,56.44 -97.6,37.63 -181.68,91.14 -252.24,160.52 -70.55,69.38 -125.23,151.69 -164.04,246.94 -38.8,95.25 -58.21,201.67 -58.21,319.27 0,112.89 19.41,217.54 58.21,313.97 38.81,96.43 93.49,179.92 164.04,250.47 70.56,70.56 153.46,124.65 248.71,162.28 95.25,37.63 201.67,56.44 319.27,56.44 112.88,0 222.25,-18.22 328.08,-54.68 37.93,-13.06 75.56,-29.38 112.89,-48.94l0 -721.88 529.16 0 0 1005.42c-136.4,103.48 -293.39,181.68 -470.95,234.6 -177.57,52.92 -354.55,79.37 -530.93,79.37z"/>
   <path class="fil2" d="M3384.16 4305.39l364.89 -364.89c-91.37,-82.37 -196.58,-148.72 -315.63,-199.06 -175.22,-74.09 -369.83,-111.13 -583.85,-111.13 -192.85,0 -371.01,31.16 -534.46,93.49 -163.45,62.32 -305.15,150.52 -425.1,264.58 -119.94,114.07 -213.43,249.3 -280.45,405.69 -67.03,156.4 -100.55,327.5 -100.55,513.3 0,185.79 33.52,356.89 100.55,513.29 67.02,156.4 160.51,291.63 280.45,405.69 119.95,114.07 261.65,202.26 425.1,264.59 163.45,62.32 340.43,93.48 530.93,93.48 216.37,0 412.16,-37.63 587.38,-112.89 175.21,-75.25 320.44,-184.62 435.68,-328.08l-373.95 -345.72c-82.31,96.42 -175.21,169.33 -278.69,218.72 -103.48,49.39 -216.37,74.08 -338.67,74.08 -115.24,0 -219.9,-18.81 -313.97,-56.44 -94.07,-37.63 -175.8,-91.13 -245.18,-160.51 -69.38,-69.38 -123.47,-152.29 -162.28,-248.71 -38.8,-96.43 -58.21,-202.26 -58.21,-317.5 0,-115.24 19.41,-221.08 58.21,-317.5 38.81,-96.43 92.9,-179.33 162.28,-248.71 69.38,-69.38 151.11,-122.89 245.18,-160.52 94.07,-37.63 198.73,-56.44 313.97,-56.44 122.3,0 235.19,24.69 338.67,74.08 59.39,28.34 115.29,64.05 167.7,107.11z"/>
   <polygon class="fil2" points="3491.7,5401.47 3865.23,5746.2 4378.82,5212.22 3982.73,4902 "/>
  </g>
  <path class="fil3" d="M18580.5 12410.61c-0.92,-336.48 51.95,-646.76 158.61,-930.81 106.67,-284.06 258.02,-529.74 454.08,-737.03 196.05,-207.28 428.71,-369.06 697.98,-485.31 269.28,-116.27 564.05,-174.85 884.29,-175.72 320.27,-0.86 615.35,56.12 885.25,170.93 269.89,114.79 503.42,276.32 700.61,484.57 197.17,208.24 349.87,455.11 458.07,740.63 108.21,285.5 162.77,598.52 163.69,939.05 1.03,377.01 -60.88,717.72 -185.73,1022.1 -124.86,304.37 -306.58,560.27 -545.2,767.67l-597.67 -642.96c161.73,-154.49 281.89,-322.03 360.45,-502.65 78.56,-180.62 117.55,-378.35 116.96,-593.21 -0.55,-202.69 -33.47,-388.07 -98.79,-556.13 -65.32,-168.06 -157.95,-312.74 -277.87,-434.04 -119.92,-121.28 -262.05,-215.15 -426.42,-281.6 -164.36,-66.44 -347.89,-99.4 -550.6,-98.85 -194.58,0.53 -374.88,34.47 -540.92,101.8 -166.03,67.35 -309.69,161.99 -430.97,283.93 -121.29,121.95 -214.14,265.1 -278.56,429.46 -64.42,164.36 -96.34,347.88 -95.79,550.59 0.52,194.57 32.44,383.01 95.78,565.26 91.22,262.62 850.17,-287.42 1138.29,-439.55l85.97 764.29 -1625.64 783.06c-179.01,-234.63 -314.54,-504.87 -406.58,-810.68 -92.05,-305.83 -138.47,-610.77 -139.29,-914.8z"/>
  <path class="fil3" d="M21843.73 9404.09l623.47 634.42c143.34,-156.25 259.29,-336.6 347.84,-541.04 130.34,-300.91 197.11,-635.79 200.32,-1004.69 2.9,-332.4 -48.14,-639.96 -153.12,-922.62 -104.96,-282.67 -254.86,-528.23 -449.66,-736.7 -194.81,-208.45 -426.5,-371.62 -695.05,-489.49 -268.58,-117.88 -562.99,-178.23 -883.24,-181.02 -320.24,-2.79 -615.66,52.42 -886.24,165.61 -270.59,113.17 -505.08,272.28 -703.48,477.3 -198.42,205.04 -352.56,447.96 -462.45,728.75 -109.87,280.8 -166.23,585.38 -169.1,913.74 -3.24,372.94 58.68,710.98 185.77,1014.13 127.07,303.13 313.41,555.1 558.95,755.88l601.52 -639.36c-164.96,-143.33 -289.24,-304.55 -372.82,-483.65 -83.57,-179.11 -124.44,-374.06 -122.6,-584.86 1.73,-198.64 35.72,-378.75 102,-540.33 66.27,-161.58 159.71,-301.65 280.34,-420.19 120.63,-118.55 264.35,-210.53 431.13,-275.98 166.79,-65.43 349.5,-97.3 548.13,-95.57 198.63,1.73 380.77,36.78 546.38,105.1 165.63,68.35 307.71,162.82 426.26,283.45 118.54,120.63 209.55,262.31 273,425.02 63.44,162.7 94.29,343.38 92.56,542.02 -1.83,210.8 -46.08,405.01 -132.77,582.63 -49.74,101.95 -112.13,197.76 -187.14,287.45z"/>
  <path class="fil3" d="M19923.25 9546.84l-612.88 631.51c231.17,219.25 523.97,382.5 886.03,482.77l733.77 -389.96c-124.88,-28 -117.73,-90.76 -242.61,-118.74 -202.07,-126.46 -482.04,-339.95 -764.31,-605.58z"/>
  <polygon class="fil1" points="25952.25,10785.83 25952.25,10207.27 24246.69,8796.16 24246.69,9417.05 25598.13,10500.08 24246.69,11597.22 24246.69,12218.11 "/>
  <polygon class="fil1" points="15528.59,10785.83 15528.59,10207.27 17235.64,8796.16 17235.64,9417.05 15883.02,10500.08 17235.64,11597.22 17235.64,12218.11 "/>
  <g id="_2414803607024">
   <path class="fil2" d="M4219.06 10154.8c-195.19,3.05 -375.57,-25.31 -541.14,-85.05 -165.58,-59.76 -309.23,-145.72 -430.94,-257.91 -121.71,-112.18 -217.29,-245.93 -286.74,-401.27 -69.46,-155.34 -105.64,-325.9 -108.54,-511.66 -2.89,-185.78 27.96,-357.38 92.54,-514.81 64.58,-157.41 156.54,-294.09 275.87,-410.04 119.32,-115.93 261.39,-206.35 426.21,-271.25 164.81,-64.91 345.98,-98.89 543.52,-101.97 218.69,-3.41 416.8,29.96 594.3,100.11 177.5,70.15 327.3,173.66 449.39,310.54l-368.51 351.5c-90.83,-92.67 -188.92,-161.12 -294.28,-205.34 -105.36,-44.22 -220.35,-65.36 -344.99,-63.42 -117.57,1.83 -224.87,22.32 -321.87,61.46 -97,39.15 -180.24,93.96 -249.71,164.43 -69.46,70.47 -122.85,153.63 -160.17,249.47 -37.31,95.84 -55.06,202.55 -53.23,320.14 1.76,112.87 22.8,217.21 63.1,313.02 40.31,95.82 96.28,178.44 167.92,247.89 71.65,69.45 155.38,122.24 251.21,158.38 95.82,36.14 202.52,53.29 320.11,51.46 112.87,-1.76 221.94,-21.68 327.19,-59.79 37.72,-13.65 75.09,-30.55 112.11,-50.69l-11.25 -721.79 529.1 -8.25 15.67 1005.3c-134.78,105.59 -290.53,186.23 -467.24,241.91 -176.73,55.68 -353.27,84.89 -529.63,87.63z"/>
   <path class="fil2" d="M2443.5 8269.08l359.16 -370.53c-92.64,-80.94 -198.87,-145.64 -318.69,-194.12 -176.36,-71.35 -371.52,-105.35 -585.51,-102.02 -192.83,3.01 -370.48,36.94 -532.94,101.81 -162.46,64.86 -302.77,155.26 -420.93,271.17 -118.15,115.93 -209.52,252.6 -274.09,410.01 -64.59,157.43 -95.44,329.03 -92.54,514.81 2.89,185.77 39.07,356.32 108.53,511.66 69.45,155.34 165.04,289.09 286.74,401.27 121.71,112.19 264.77,198.16 429.17,257.93 164.4,59.77 341.85,88.17 532.32,85.2 216.35,-3.37 411.53,-44.05 585.55,-122.03 174.02,-77.97 317.53,-189.59 430.52,-334.83l-379.29 -339.85c-80.8,97.69 -172.55,172.04 -275.25,223.04 -102.7,50.99 -215.19,77.44 -337.48,79.34 -115.22,1.8 -220.16,-15.38 -314.81,-51.54 -94.64,-36.16 -177.2,-88.38 -247.65,-156.67 -70.45,-68.29 -125.83,-150.34 -166.13,-246.15 -40.3,-95.81 -61.36,-201.33 -63.15,-316.55 -1.8,-115.23 15.96,-221.36 53.25,-318.37 37.3,-97.02 90.1,-180.76 158.39,-251.21 68.29,-70.45 149.17,-125.23 242.65,-164.32 93.47,-39.09 197.82,-59.53 313.05,-61.33 122.28,-1.9 235.54,21.03 339.78,68.8 59.83,27.41 116.28,62.24 169.35,104.48z"/>
   <polygon class="fil2" points="2568.1,9363.35 2946.96,9702.22 3452.17,9160.31 3051.29,8856.29 "/>
  </g>
  <path class="fil4" d="M5406.14 10136.85l0 -2390.01c-1.28,-45.9 31,-64.48 77.27,-60.86l0 0 367.39 0c21.35,0.34 37.29,7.59 47.05,27.26l898.16 1494.45 6.69 9.94 126.47 211.45 -251.31 0.05 131.99 -222.53 890.05 -1500.64c10.15,-12.18 24.49,-18.85 39.1,-19.92l362.64 0.81c61.82,-0.49 76.84,13.47 80.32,71.33l7.59 2397.25 -536.22 0 -3.53 -1647.47 98.78 0 -819.02 1375.54c-1.66,4.5 -9.95,10.44 -18.84,10.87l-235.07 0c-6.37,-1.54 -11.64,-5 -16.12,-9.89l-837.12 -1376.52 119.95 0 0.48 1647.92 -521.57 0c-9.32,-1 -14.54,-9.25 -15.13,-19.03z"/>
  <path class="fil5" d="M5480.55 13571.95c-195.19,3.05 -375.57,-25.31 -541.14,-85.05 -165.58,-59.76 -309.23,-145.72 -430.94,-257.91 -121.71,-112.18 -224.41,-243.48 -288.35,-391.11 -8.85,-19.79 -16.68,-40.46 -24.44,-60.96 -53.2,-140.58 -79.96,-298.76 -82.49,-460.86 -2.89,-185.78 27.96,-357.38 92.54,-514.81 64.58,-157.41 156.54,-294.09 275.87,-410.04 119.32,-115.93 261.39,-206.35 426.21,-271.25 164.81,-64.91 345.98,-98.89 543.52,-101.97 218.69,-3.41 416.8,29.96 594.3,100.11 177.5,70.15 327.3,173.66 449.39,310.54l-368.51 351.5c-90.83,-92.67 -188.92,-161.12 -294.28,-205.34 -105.36,-44.22 -220.35,-65.36 -344.99,-63.42 -117.57,1.83 -224.87,22.32 -321.87,61.46 -97,39.15 -180.24,93.96 -249.71,164.43 -69.46,70.47 -122.85,153.63 -160.17,249.47 -37.31,95.84 -55.06,202.55 -53.23,320.14 1.76,112.87 22.8,217.21 63.1,313.02 40.31,95.82 96.28,178.44 167.92,247.89 71.65,69.45 155.38,122.24 251.21,158.38 95.82,36.14 202.52,53.29 320.11,51.46 112.87,-1.76 221.94,-21.68 327.19,-59.79l96.45 -42.37c17.82,-7.83 15.68,-6.81 15.41,-24.46l-7.8 -500.88c-0.62,-39.85 3.8,-50.15 11.28,-56.17 6.36,-5.12 12.63,-8.66 45.49,-9.17l409.16 -6.38c37.55,-0.58 46.18,0.92 52.2,7.98 4.62,5.43 10.29,11.65 10.7,38.48l12.38 794.63c0.2,12.81 -1.34,15.65 -2.93,19.47 -1.67,4.04 -3.72,8.98 -14.5,17.14 -130.62,98.87 -280.46,174.96 -449.45,228.21 -176.73,55.68 -353.27,84.89 -529.63,87.63zm-1775.56 -1885.72l359.16 -370.53c-92.64,-80.94 -198.87,-145.64 -318.69,-194.12 -176.36,-71.35 -371.52,-105.35 -585.51,-102.02 -192.83,3.01 -370.48,36.94 -532.94,101.81 -162.46,64.86 -302.77,155.26 -420.93,271.17 -118.15,115.93 -209.52,252.6 -274.09,410.01 -64.59,157.43 -95.44,329.03 -92.54,514.81 2.89,185.77 39.07,356.32 108.53,511.66 69.45,155.34 165.04,289.09 286.74,401.27 121.71,112.19 264.77,198.16 429.17,257.93 164.4,59.77 341.85,88.17 532.32,85.2 216.35,-3.37 411.53,-44.05 585.55,-122.03 174.02,-77.97 317.53,-189.59 430.52,-334.83l-378.94 -332.41c-80.8,97.69 -172.9,164.6 -275.6,215.6 -102.7,50.99 -215.19,77.44 -337.48,79.34 -115.22,1.8 -220.16,-15.38 -314.81,-51.54 -94.64,-36.16 -177.2,-88.38 -247.65,-156.67 -70.45,-68.29 -125.83,-150.34 -166.13,-246.15 -40.3,-95.81 -61.36,-201.33 -63.15,-316.55 -1.8,-115.23 15.96,-221.36 53.25,-318.37 37.3,-97.02 90.1,-180.76 158.39,-251.21 68.29,-70.45 149.17,-125.23 242.65,-164.32 93.47,-39.09 197.82,-59.53 313.05,-61.33 122.28,-1.9 235.54,21.03 339.78,68.8 59.83,27.41 116.28,62.24 169.35,104.48zm128.11 1098.17l379.18 332.16c35.05,-37.69 67.88,-73.15 102.93,-110.84 -109.14,-151.36 -164.99,-334.65 -191.38,-534.16l-290.73 312.84zm2642.53 -1376.97l1016.97 1185.68 0 0 6.69 9.94 126.47 211.45 -251.31 0.05 131.99 -222.53 859.87 -1464.78c10.15,-12.18 24.49,-18.85 39.1,-19.92l362.64 0.81c61.82,-0.49 76.84,13.47 80.32,71.33l7.59 2397.25 -536.22 0 -3.53 -1647.47 98.78 0 -788.84 1339.68c-1.66,4.5 -9.95,10.44 -18.84,10.87l-235.07 0c-6.37,-1.54 -4.48,-6.82 -8.96,-11.71l-1252.77 -1503.95 365.12 -356.7z"/>
  <g id="_2414803614656">
   <path class="fil4" d="M6265.44 16825.66l1109 1379.18 0 0 8.38 12.46 158.64 265.23 -315.24 0.07 165.56 -279.13 1127.84 -1837.41c12.73,-15.28 30.72,-23.65 49.05,-24.99l454.89 1.02c77.54,-0.62 96.38,16.89 100.75,89.47l9.52 3007.06 -672.62 0 -4.43 -2066.55 123.91 0 -1038.74 1680.49c-2.09,5.64 -12.47,13.09 -23.64,13.63l-294.86 0c-7.98,-1.92 -5.62,-8.56 -11.24,-14.69l-1422.09 -1783.98 475.32 -441.86z"/>
   <g>
    <path class="fil2" d="M4937.64 19540.05c-248.75,0.67 -478.13,-38.41 -688.12,-117.26 -210.01,-78.86 -391.63,-190.75 -544.88,-335.69 -153.23,-144.94 -272.83,-316.94 -358.77,-516.01 -85.96,-199.06 -129.27,-416.98 -129.91,-653.73 -0.64,-236.77 41.49,-454.92 126.36,-654.45 84.87,-199.52 204.28,-372.17 358.23,-517.94 153.95,-145.77 336.46,-258.66 547.54,-338.64 211.06,-80 442.47,-120.34 694.22,-121.02 278.71,-0.76 530.59,45.01 755.62,137.31 225.01,92.3 414.19,226.65 567.52,403.06l-475.33 441.84c-114.21,-119.57 -238.07,-208.39 -371.6,-266.47 -133.53,-58.08 -279.7,-86.9 -438.55,-86.47 -149.84,0.4 -286.89,24.74 -411.13,73.03 -124.24,48.29 -231.2,116.77 -320.88,205.42 -89.66,88.66 -159.05,193.73 -208.18,315.25 -49.12,121.51 -73.48,257.18 -73.08,407.04 0.39,143.86 25.49,277.15 75.26,399.89 49.79,122.75 119.76,228.95 209.91,318.61 90.15,89.67 195.98,158.31 317.49,205.94 121.5,47.62 257.18,71.22 407.04,70.82 143.84,-0.39 283.15,-23.99 417.88,-70.82 194.15,-67.44 -212.49,-628.51 -324.95,-841.51l565.03 -63.55 578.9 1201.8c-173.46,132.33 -373.24,232.53 -599.33,300.57 -226.09,68.05 -451.53,102.37 -676.29,102.98z"/>
    <path class="fil2" d="M2714.99 17127.61l469.01 -460.91c-115.51,-105.98 -248.84,-191.69 -399.98,-257.16 -222.45,-96.36 -470.03,-145.72 -742.74,-148.09 -245.74,-2.14 -473.11,35.59 -682.08,113.2 -208.97,77.59 -390.51,188.41 -544.62,332.42 -154.1,144.02 -274.74,315.3 -361.87,513.84 -87.15,198.55 -131.76,416.2 -133.83,652.96 -2.06,236.74 38.75,455.14 122.43,655.18 83.67,200.04 201.3,373.39 352.86,520.06 151.58,146.69 331.17,260.64 538.75,341.88 207.59,81.23 432.76,122.9 675.51,125.01 275.71,2.4 525.61,-43.37 749.72,-137.33 224.1,-93.94 410.37,-231.7 558.81,-413.22l-472.67 -444.69c-105.95,121.95 -225.14,213.83 -357.55,275.61 -132.41,61.79 -276.53,92 -432.37,90.64 -146.85,-1.28 -280,-26.41 -399.46,-75.4 -119.45,-49 -223,-118.08 -310.64,-207.26 -87.63,-89.17 -155.64,-195.42 -204.02,-318.72 -48.37,-123.31 -71.93,-258.38 -70.65,-405.22 1.28,-146.85 27.19,-281.5 77.7,-403.93 50.52,-122.45 120.37,-227.48 209.55,-315.12 89.17,-87.64 193.91,-154.92 314.2,-201.82 120.29,-46.91 253.86,-69.71 400.7,-68.44 155.85,1.36 299.42,34.08 430.73,98.16 75.37,36.77 146.2,82.9 212.51,138.35z"/>
   </g>
   <path class="fil2" d="M2793.25 18574.58l465.25 454.74c162.69,-170.32 284.15,-386.35 359.23,-653.75l-286.36 -543.48c-21.03,92.25 -67.41,86.79 -88.43,179.04 -94.02,149.05 -252.58,355.47 -449.69,563.45z"/>
  </g>
 </g>
</svg>
